<svg viewBox="0 0 1024 1024" xmlns="http://www.w3.org/2000/svg"><path d="M870.4 972.8H153.6a51.2 51.2 0 0 1-51.2-51.2V102.4a51.2 51.2 0 0 1 51.2-51.2h512v153.6a102.4 102.4 0 0 0 102.4 102.4h153.6v614.4a51.2 51.2 0 0 1-51.2 51.2z" fill="#F47C43" p-id="1691"></path><path d="M750.9504 307.2a85.3504 85.3504 0 0 1-85.4016-85.3504V102.4h-563.2a51.2 51.2 0 0 1 51.2-51.2h512l256 256h-170.5984z" fill="#FFD4BE" p-id="1692"></path><path d="M512 768a204.8 204.8 0 0 1 0-409.6v204.8h204.8a204.8 204.8 0 0 1-204.8 204.8z" fill="#FCE0D6" p-id="1693"></path><path d="M563.2 307.2a204.8 204.8 0 0 1 204.8 204.8h-204.8V307.2z" fill="#FFFFFF" p-id="1694"></path><path d="M102.4 870.4h819.2v51.2a51.2 51.2 0 0 1-51.2 51.2H153.6a51.2 51.2 0 0 1-51.2-51.2v-51.2z" fill="#C1331A" p-id="1695"></path></svg>
