<svg viewBox="0 0 1024 1024" xmlns="http://www.w3.org/2000/svg"><path d="M870.4 972.8H153.6a51.2 51.2 0 0 1-51.2-51.2V102.4a51.2 51.2 0 0 1 51.2-51.2h512v153.6a102.4 102.4 0 0 0 102.4 102.4h153.6v614.4a51.2 51.2 0 0 1-51.2 51.2z" fill="#48D6F3" p-id="3092"></path><path d="M750.9504 307.2a85.3504 85.3504 0 0 1-85.4016-85.3504V102.4h-563.2a51.2 51.2 0 0 1 51.2-51.2h512l256 256h-170.5984z" fill="#9CECFE" p-id="3093"></path><path d="M189.8496 665.6V442.1632h89.4976c16.384 0 30.1056 2.4576 41.1136 7.3216 10.9568 4.864 19.2 11.6224 24.7296 20.2752 5.5296 8.6016 8.2944 18.4832 8.2944 29.696a45.1584 45.1584 0 0 1-19.6608 39.168c-5.9904 4.096-12.9024 7.0656-20.6848 8.8576v2.1504a50.9952 50.9952 0 0 1 42.0864 25.856c4.6592 7.936 7.0144 17.408 7.0144 28.3648 0 11.8784-2.9696 22.4256-8.8576 31.744-5.7856 9.216-14.4384 16.5376-25.856 21.9136-11.4176 5.376-25.4976 8.0896-42.1888 8.0896H189.8496z m47.2576-38.6048h38.5024c13.1584 0 22.784-2.56 28.8256-7.5264a25.1904 25.1904 0 0 0 9.0112-20.3264c0-6.144-1.4848-11.6224-4.4544-16.384a30.3616 30.3616 0 0 0-12.8-11.0592 43.6736 43.6736 0 0 0-19.456-4.096H237.056v59.392z m0-91.3408h35.0208a41.6768 41.6768 0 0 0 17.2544-3.3792 28.672 28.672 0 0 0 11.9808-9.8304 25.6 25.6 0 0 0 4.4544-15.1552 24.5248 24.5248 0 0 0-8.6016-19.5072c-5.632-4.9664-13.7728-7.424-24.2176-7.424H237.056v55.296zM392.96 442.1632h58.2656l61.5424 150.1184h2.56l61.5936-150.1184h58.2144V665.6h-45.824v-145.408h-1.8432l-57.856 144.3328h-31.1296l-57.856-144.896H438.784V665.6h-45.824V442.1632zM674.048 665.6V442.1632h88.1664c16.9472 0 31.3856 3.2768 43.3152 9.728 11.9296 6.4 20.992 15.3088 27.2384 26.7264 6.3488 11.3664 9.5232 24.4224 9.5232 39.2704 0 14.848-3.2256 27.9552-9.6256 39.2704a66.1504 66.1504 0 0 1-27.8016 26.5216c-12.0832 6.2976-26.6752 9.472-43.8784 9.472h-56.1664v-37.888h48.5376c9.1136 0 16.5888-1.536 22.528-4.608a31.1296 31.1296 0 0 0 13.312-13.2608 41.3696 41.3696 0 0 0 4.4544-19.5072 40.2944 40.2944 0 0 0-4.5056-19.456 29.9008 29.9008 0 0 0-13.312-12.9536 48.64 48.64 0 0 0-22.6816-4.6592h-31.8464V665.6h-47.2576z" fill="#FFFFFF" p-id="3094"></path><path d="M102.4 870.4h819.2v51.2a51.2 51.2 0 0 1-51.2 51.2H153.6a51.2 51.2 0 0 1-51.2-51.2v-51.2z" fill="#00A1C2" p-id="3095"></path></svg>
