<svg viewBox="0 0 1024 1024" xmlns="http://www.w3.org/2000/svg"><path d="M870.4 972.8H153.6a51.2 51.2 0 0 1-51.2-51.2V102.4a51.2 51.2 0 0 1 51.2-51.2h512v153.6a102.4 102.4 0 0 0 102.4 102.4h153.6v614.4a51.2 51.2 0 0 1-51.2 51.2z" fill="#7C98C2" p-id="2382"></path><path d="M750.9504 307.2a85.3504 85.3504 0 0 1-85.4016-85.3504V102.4h-563.2a51.2 51.2 0 0 1 51.2-51.2h512l256 256h-170.5984z" fill="#C2D5F1" p-id="2383"></path><path d="M102.4 870.4h819.2v51.2a51.2 51.2 0 0 1-51.2 51.2H153.6a51.2 51.2 0 0 1-51.2-51.2v-51.2z" fill="#254371" p-id="2384"></path><path d="M432.9472 691.9168h97.28v97.28h-97.28v-97.28z m97.28-80.1792v31.4368h-97.28v-73.1136a48.7424 48.7424 0 0 1 48.7424-48.7424 73.1136 73.1136 0 1 0-71.68-87.6544l-95.6928-18.9952a170.7008 170.7008 0 1 1 216.1152 197.0688h-0.2048z" fill="#FFFFFF" p-id="2385"></path></svg>
