<svg viewBox="0 0 1024 1024" xmlns="http://www.w3.org/2000/svg"><path d="M870.4 972.8H153.6a51.2 51.2 0 0 1-51.2-51.2V102.4a51.2 51.2 0 0 1 51.2-51.2h512v153.6a102.4 102.4 0 0 0 102.4 102.4h153.6v614.4a51.2 51.2 0 0 1-51.2 51.2z" fill="#F66161" p-id="1861"></path><path d="M750.9504 307.2a85.3504 85.3504 0 0 1-85.4016-85.3504V102.4h-563.2a51.2 51.2 0 0 1 51.2-51.2h512l256 256h-170.5984z" fill="#FFBABA" p-id="1862"></path><path d="M353.024 514.4064a48.9984 48.9984 0 0 0-6.4512-14.08 43.52 43.52 0 0 0-23.6544-17.152 57.1904 57.1904 0 0 0-16.6912-2.2528c-11.4176 0-21.504 2.816-30.1056 8.4992a55.808 55.808 0 0 0-20.0704 24.7808 96.768 96.768 0 0 0-7.2192 39.424c0 15.616 2.3552 28.8256 7.0656 39.7312 4.7616 10.9568 11.4176 19.2512 20.1216 24.9856 8.6528 5.6832 18.8416 8.5504 30.6176 8.5504 10.752 0 19.8144-1.8944 27.392-5.6832a40.6528 40.6528 0 0 0 17.4592-16.2816 48.2816 48.2816 0 0 0 6.144-24.7296l9.5744 1.3824H309.6064v-35.5328h93.4912v28.16c0 19.6096-4.1472 36.5056-12.4416 50.5856a84.7872 84.7872 0 0 1-34.304 32.512c-14.4896 7.5776-31.1808 11.3664-49.92 11.3664-20.992 0-39.3216-4.608-55.1936-13.824a96.1536 96.1536 0 0 1-37.12-39.6288c-8.7552-17.2032-13.1584-37.5296-13.1584-61.1328 0-18.0736 2.56-34.2528 7.8336-48.4352 5.3248-14.2336 12.7488-26.3168 22.272-36.1984 9.5232-9.8816 20.5824-17.408 33.28-22.5792 12.6464-5.12 26.3168-7.7312 41.1136-7.7312 12.6464 0 24.4224 1.8432 35.328 5.5296 10.9056 3.6352 20.5824 8.8064 29.0304 15.5136 8.4992 6.656 15.4624 14.6432 20.8384 23.9104 5.376 9.1648 8.8064 19.2512 10.3424 30.3104h-47.9744zM562.5856 442.1632V665.6h-47.2064V442.1632h47.2064zM678.2464 665.6V442.1632h147.968v38.9632H725.504v53.248h90.88v38.912H725.504V665.6h-47.2576z" fill="#FFFFFF" p-id="1863"></path><path d="M102.4 870.4h819.2v51.2a51.2 51.2 0 0 1-51.2 51.2H153.6a51.2 51.2 0 0 1-51.2-51.2v-51.2z" fill="#E91B1B" p-id="1864"></path></svg>
