<svg viewBox="0 0 1024 1024" xmlns="http://www.w3.org/2000/svg"><path d="M870.4 972.8H153.6a51.2 51.2 0 0 1-51.2-51.2V102.4a51.2 51.2 0 0 1 51.2-51.2h512v153.6a102.4 102.4 0 0 0 102.4 102.4h153.6v614.4a51.2 51.2 0 0 1-51.2 51.2z" fill="#8BA4C9" p-id="2951"></path><path d="M750.9504 307.2a85.3504 85.3504 0 0 1-85.4016-85.3504V102.4h-563.2a51.2 51.2 0 0 1 51.2-51.2h512l256 256h-170.5984z" fill="#C2D5F1" p-id="2952"></path><path d="M358.4 307.2a102.4 102.4 0 0 1 102.4 102.4v102.4H358.4a102.4 102.4 0 0 1-102.4-102.4 102.4 102.4 0 0 1 102.4-102.4z" fill="#FFFFFF" p-id="2953"></path><path d="M614.4 307.2a102.4 102.4 0 0 1 0 204.8h-102.4V409.6a102.4 102.4 0 0 1 102.4-102.4z" fill="#E9EEF5" p-id="2954"></path><path d="M512 563.2h102.4a102.4 102.4 0 0 1 0 204.8 102.4 102.4 0 0 1-102.4-102.4v-102.4z" fill="#D5DEEB" p-id="2955"></path><path d="M358.4 563.2h102.4v102.4a102.4 102.4 0 0 1-102.4 102.4 102.4 102.4 0 0 1-102.4-102.4 102.4 102.4 0 0 1 102.4-102.4z" fill="#C4D1E4" p-id="2956"></path><path d="M102.4 870.4h819.2v51.2a51.2 51.2 0 0 1-51.2 51.2H153.6a51.2 51.2 0 0 1-51.2-51.2v-51.2z" fill="#254371" p-id="2957"></path></svg>
