<svg viewBox="0 0 1024 1024" xmlns="http://www.w3.org/2000/svg"><path d="M870.4 972.8H153.6a51.2 51.2 0 0 1-51.2-51.2V102.4a51.2 51.2 0 0 1 51.2-51.2h512v153.6a102.4 102.4 0 0 0 102.4 102.4h153.6v614.4a51.2 51.2 0 0 1-51.2 51.2z" fill="#F8C42A" p-id="2106"></path><path d="M750.9504 307.2a85.3504 85.3504 0 0 1-85.4016-85.3504V102.4h-563.2a51.2 51.2 0 0 1 51.2-51.2h512l256 256h-170.5984z" fill="#FFEDB7" p-id="2107"></path><path d="M272.1792 442.1632h46.6944v155.8016c0 14.3872-3.2256 26.88-9.728 37.5296a64.1536 64.1536 0 0 1-26.7264 24.576 87.3984 87.3984 0 0 1-39.7824 8.6016c-13.4656 0-25.7024-2.3552-36.6592-7.1168a58.5728 58.5728 0 0 1-25.9584-21.8112c-6.4-9.8304-9.5744-22.1184-9.5232-36.9664h47.0528a33.5872 33.5872 0 0 0 3.584 15.1552 24.576 24.576 0 0 0 9.472 9.5744c4.096 2.2016 8.9088 3.2768 14.4384 3.2768 5.7856 0 10.752-1.2288 14.6944-3.6864 4.096-2.56 7.168-6.2464 9.2672-11.1104a45.312 45.312 0 0 0 3.1744-18.0224V442.1632zM425.5232 665.6V442.1632h88.1664c16.896 0 31.3344 3.2768 43.264 9.728 11.9296 6.4 20.992 15.3088 27.2896 26.7264 6.3488 11.3664 9.472 24.4224 9.472 39.2704 0 14.848-3.1744 27.9552-9.5744 39.2704a66.2016 66.2016 0 0 1-27.8016 26.5216c-12.0832 6.2976-26.7264 9.472-43.8784 9.472H456.2944v-37.888h48.5376c9.1136 0 16.5888-1.536 22.4768-4.608a31.0784 31.0784 0 0 0 13.312-13.2608 41.3696 41.3696 0 0 0 4.4544-19.456 40.2944 40.2944 0 0 0-4.4544-19.456 29.8496 29.8496 0 0 0-13.312-13.0048 48.64 48.64 0 0 0-22.6816-4.6592h-31.8976V665.6h-47.2064z m266.496 0V442.1632h150.528v38.9632h-103.3216v53.248h95.5904v38.912h-95.5904v53.3504h103.7824V665.6h-151.04z" fill="#FFFFFF" p-id="2108"></path><path d="M102.4 870.4h819.2v51.2a51.2 51.2 0 0 1-51.2 51.2H153.6a51.2 51.2 0 0 1-51.2-51.2v-51.2z" fill="#E58201" p-id="2109"></path></svg>
