<svg viewBox="0 0 1024 1024" xmlns="http://www.w3.org/2000/svg"><path d="M870.4 972.8H153.6a51.2 51.2 0 0 1-51.2-51.2V102.4a51.2 51.2 0 0 1 51.2-51.2h512v153.6a102.4 102.4 0 0 0 102.4 102.4h153.6v614.4a51.2 51.2 0 0 1-51.2 51.2z" fill="#F55A5B" p-id="2399"></path><path d="M750.9504 307.2a85.3504 85.3504 0 0 1-85.4016-85.3504V102.4h-563.2a51.2 51.2 0 0 1 51.2-51.2h512l256 256h-170.5984z" fill="#FFBABA" p-id="2400"></path><path d="M413.3888 768H320.6144l141.3632-409.6h111.616l141.2096 409.6h-92.8256l-102.5536-316.0064h-3.2256L413.3888 768z m-5.7856-161.024h219.1872v67.584H407.6032v-67.584z" fill="#FFFFFF" p-id="2401"></path><path d="M102.4 870.4h819.2v51.2a51.2 51.2 0 0 1-51.2 51.2H153.6a51.2 51.2 0 0 1-51.2-51.2v-51.2z" fill="#E91B1B" p-id="2402"></path></svg>
