<svg viewBox="0 0 1024 1024" xmlns="http://www.w3.org/2000/svg"><path d="M870.4 972.8H153.6a51.2 51.2 0 0 1-51.2-51.2V102.4a51.2 51.2 0 0 1 51.2-51.2h512v153.6a102.4 102.4 0 0 0 102.4 102.4h153.6v614.4a51.2 51.2 0 0 1-51.2 51.2z" fill="#BB79F0" p-id="3230"></path><path d="M750.9504 307.2a85.3504 85.3504 0 0 1-85.4016-85.3504V102.4h-563.2a51.2 51.2 0 0 1 51.2-51.2h512l256 256h-170.5984z" fill="#E0B7FF" p-id="3231"></path><path d="M164.864 481.1264v-38.912h183.552v38.912H280.0128V665.6h-46.6944V481.1264H164.864zM465.92 442.1632l45.056 76.1856h1.7408l45.2608-76.1856h53.3504l-68.1984 111.7184L612.864 665.6h-54.3232l-45.824-76.288H510.976L465.152 665.6H411.0336l69.9392-111.7184-68.608-111.7184H465.92zM675.7376 481.1264v-38.912h183.4496v38.912h-68.352V665.6h-46.6944V481.1264h-68.4032z" fill="#FFFFFF" p-id="3232"></path><path d="M102.4 870.4h819.2v51.2a51.2 51.2 0 0 1-51.2 51.2H153.6a51.2 51.2 0 0 1-51.2-51.2v-51.2z" fill="#8E32DE" p-id="3233"></path></svg>
