<svg viewBox="0 0 1024 1024" xmlns="http://www.w3.org/2000/svg"><path d="M926.72 972.8H97.28c-25.344 0-46.08-19.6608-46.08-43.52V665.6h921.6v263.68c0 23.8592-20.736 43.52-46.08 43.52z" fill="#5ACC9B" p-id="2537"></path><path d="M97.28 51.2h829.44c25.344 0 46.08 19.6608 46.08 43.52V358.4H51.2V94.72c0-23.8592 20.736-43.52 46.08-43.52z" fill="#6CCBFF" p-id="2538"></path><path d="M51.2 358.4h921.6v307.2H51.2V358.4z" fill="#FFD766" p-id="2539"></path><path d="M358.4 51.2h307.2v921.6H358.4V51.2z" fill="#FF5562" p-id="2540"></path><path d="M563.2 51.2h-51.2v51.2H460.8v51.2h51.2v51.2H460.8v51.2h51.2v51.2H460.8v51.2512h51.2v51.2H460.8v51.2h51.2V512H460.8v51.2h51.2v51.2H460.8v51.2h51.2v51.2H460.8v51.2h51.2v51.2H460.8v51.2h51.2v51.2H460.8v51.2h51.2v-51.2h51.2v-51.2h-51.2v-51.2h51.2v-51.2h-51.2v-51.2h51.2v-51.2512h-51.2v-51.2h51.2v-51.2h-51.2V512h51.2V460.8h-51.2V409.6h51.2V358.4h-51.2V307.2h51.2V256h-51.2V204.8h51.2V153.6h-51.2V102.4h51.2V51.2z" fill="#FFFFFF" p-id="2541"></path></svg>
