<svg viewBox="0 0 1024 1024" xmlns="http://www.w3.org/2000/svg"><path d="M870.4 972.8H153.6a51.2 51.2 0 0 1-51.2-51.2V102.4a51.2 51.2 0 0 1 51.2-51.2h512v153.6a102.4 102.4 0 0 0 102.4 102.4h153.6v614.4a51.2 51.2 0 0 1-51.2 51.2z" fill="#75E28E" p-id="1968"></path><path d="M750.9504 307.2a85.3504 85.3504 0 0 1-85.4016-85.3504V102.4h-563.2a51.2 51.2 0 0 1 51.2-51.2h512l256 256h-170.5984z" fill="#A6FFC0" p-id="1969"></path><path d="M264.704 442.1632h46.7456v155.8016c0 14.3872-3.2256 26.9312-9.728 37.5296a64.2048 64.2048 0 0 1-26.7264 24.576 87.5008 87.5008 0 0 1-39.8336 8.6016c-13.4144 0-25.6512-2.3552-36.608-7.1168a58.5728 58.5728 0 0 1-26.0096-21.8112c-6.4-9.8304-9.5232-22.1184-9.472-36.9664h47.0016a33.5872 33.5872 0 0 0 3.584 15.1552 24.576 24.576 0 0 0 9.5232 9.5744c4.096 2.2016 8.8576 3.2768 14.3872 3.2768 5.8368 0 10.752-1.2288 14.7456-3.6864 4.096-2.56 7.168-6.2464 9.2672-11.1104a45.312 45.312 0 0 0 3.1744-18.0224V442.1632zM402.7392 665.6V442.1632h88.1152c16.9472 0 31.3856 3.2768 43.3152 9.728 11.9296 6.4 20.992 15.3088 27.2896 26.7264 6.2976 11.3664 9.472 24.4224 9.472 39.2704 0 14.848-3.1744 27.9552-9.5744 39.2704a66.2016 66.2016 0 0 1-27.8528 26.5216c-12.0832 6.2976-26.6752 9.472-43.8272 9.472H433.4592v-37.888h48.5888c9.0624 0 16.5376-1.536 22.4768-4.608a31.1296 31.1296 0 0 0 13.312-13.2608 41.3696 41.3696 0 0 0 4.4544-19.456 40.2944 40.2944 0 0 0-4.5056-19.456 29.9008 29.9008 0 0 0-13.312-13.0048 48.64 48.64 0 0 0-22.6816-4.6592h-31.8464V665.6h-47.2064zM801.9968 514.4064a48.896 48.896 0 0 0-6.4512-14.08 43.52 43.52 0 0 0-23.6544-17.152 57.1904 57.1904 0 0 0-16.6912-2.2528c-11.4176 0-21.504 2.816-30.1056 8.4992a55.808 55.808 0 0 0-20.0704 24.7808c-4.8128 10.752-7.2192 23.9104-7.2192 39.424 0 15.616 2.3552 28.8256 7.1168 39.7312 4.7104 10.9568 11.4176 19.2512 20.0704 24.9856 8.6528 5.6832 18.8416 8.5504 30.6176 8.5504 10.752 0 19.8144-1.8944 27.392-5.6832a40.704 40.704 0 0 0 17.4592-16.2816 48.3328 48.3328 0 0 0 6.144-24.7296l9.5744 1.3824h-57.6v-35.5328h93.4912v28.16c0 19.6096-4.1472 36.5056-12.4416 50.5856a84.736 84.736 0 0 1-34.304 32.512c-14.4896 7.5776-31.1296 11.3664-49.92 11.3664-20.992 0-39.3216-4.608-55.1936-13.824a96.1536 96.1536 0 0 1-37.12-39.6288c-8.7552-17.2032-13.1584-37.5296-13.1584-61.1328 0-18.0736 2.56-34.2528 7.8336-48.4352 5.3248-14.2336 12.7488-26.3168 22.272-36.1984 9.5232-9.8816 20.5824-17.408 33.28-22.5792 12.6464-5.12 26.3168-7.7312 41.1136-7.7312 12.6464 0 24.4224 1.8432 35.328 5.5296 10.9056 3.6352 20.5824 8.8064 29.0304 15.5136 8.4992 6.656 15.4624 14.6432 20.8384 23.9104 5.376 9.1648 8.8064 19.2512 10.3424 30.3104h-47.9744z" fill="#FFFFFF" p-id="1970"></path><path d="M102.4 870.4h819.2v51.2a51.2 51.2 0 0 1-51.2 51.2H153.6a51.2 51.2 0 0 1-51.2-51.2v-51.2z" fill="#11C479" p-id="1971"></path></svg>
