<svg viewBox="0 0 1024 1024" xmlns="http://www.w3.org/2000/svg"><path d="M870.4 972.8H153.6a51.2 51.2 0 0 1-51.2-51.2V102.4a51.2 51.2 0 0 1 51.2-51.2h512v153.6a102.4 102.4 0 0 0 102.4 102.4h153.6v614.4a51.2 51.2 0 0 1-51.2 51.2z" fill="#F9824A" p-id="2520"></path><path d="M750.9504 307.2a85.3504 85.3504 0 0 1-85.4016-85.3504V102.4h-563.2a51.2 51.2 0 0 1 51.2-51.2h512l256 256h-170.5984z" fill="#FFD4BE" p-id="2521"></path><path d="M174.5408 665.6V442.1632H262.656c16.9472 0 31.3856 3.2768 43.3152 9.728 11.9296 6.4 20.992 15.3088 27.2896 26.7264 6.2976 11.3664 9.472 24.4224 9.472 39.2704 0 14.848-3.1744 27.9552-9.5744 39.2704a66.2016 66.2016 0 0 1-27.8528 26.5216c-12.0832 6.2976-26.6752 9.472-43.8272 9.472H205.2608v-37.888h48.5888a47.616 47.616 0 0 0 22.4768-4.608 31.1296 31.1296 0 0 0 13.312-13.2608 41.3696 41.3696 0 0 0 4.4544-19.456 40.2944 40.2944 0 0 0-4.5056-19.456 29.8496 29.8496 0 0 0-13.312-13.0048 48.64 48.64 0 0 0-22.6816-4.6592h-31.8464V665.6H174.592zM587.9296 442.1632V665.6h-40.8064l-97.1776-140.5952h-1.6384V665.6h-47.2576V442.1632h41.472l96.4096 140.544h1.9968V442.1632h47.0016zM802.7648 514.4064a48.896 48.896 0 0 0-6.4512-14.08 43.52 43.52 0 0 0-23.6544-17.152 57.1904 57.1904 0 0 0-16.6912-2.2528c-11.4176 0-21.504 2.816-30.1056 8.4992a55.808 55.808 0 0 0-20.0704 24.7808 96.768 96.768 0 0 0-7.168 39.424c0 15.616 2.304 28.8256 7.0656 39.7312 4.7104 10.9568 11.4176 19.2512 20.0704 24.9856 8.6528 5.6832 18.8416 8.5504 30.6176 8.5504 10.752 0 19.8656-1.8944 27.392-5.6832a40.704 40.704 0 0 0 17.4592-16.2816 48.2816 48.2816 0 0 0 6.144-24.7296l9.5744 1.3824H759.296v-35.5328h93.4912v28.16c0 19.6096-4.1472 36.5056-12.4416 50.5856a84.736 84.736 0 0 1-34.2528 32.512c-14.5408 7.5776-31.232 11.3664-49.9712 11.3664-20.9408 0-39.3216-4.608-55.1936-13.824a96.1536 96.1536 0 0 1-37.0688-39.6288c-8.8064-17.2032-13.2096-37.5296-13.2096-61.1328 0-18.0736 2.56-34.2528 7.8336-48.4352 5.3248-14.2336 12.7488-26.3168 22.272-36.1984 9.5232-9.8816 20.5824-17.408 33.28-22.5792 12.6464-5.12 26.368-7.7312 41.1136-7.7312 12.6464 0 24.4224 1.8432 35.328 5.5296 10.9056 3.6352 20.5824 8.8064 29.0304 15.5136 8.4992 6.656 15.4624 14.6432 20.8384 23.9104 5.376 9.1648 8.8576 19.2512 10.3424 30.3104h-47.9744z" fill="#FFFFFF" p-id="2522"></path><path d="M102.4 870.4h819.2v51.2a51.2 51.2 0 0 1-51.2 51.2H153.6a51.2 51.2 0 0 1-51.2-51.2v-51.2z" fill="#E73C1E" p-id="2523"></path></svg>
