<svg viewBox="0 0 1024 1024" xmlns="http://www.w3.org/2000/svg"><path d="M870.4 972.8H153.6a51.2 51.2 0 0 1-51.2-51.2V102.4a51.2 51.2 0 0 1 51.2-51.2h512v153.6a102.4 102.4 0 0 0 102.4 102.4h153.6v614.4a51.2 51.2 0 0 1-51.2 51.2z" fill="#53DBF7" p-id="2244"></path><path d="M750.9504 307.2a85.3504 85.3504 0 0 1-85.4016-85.3504V102.4h-563.2a51.2 51.2 0 0 1 51.2-51.2h512l256 256h-170.5984z" fill="#9CECFE" p-id="2245"></path><path d="M276.3776 442.1632V665.6h-47.2064V442.1632h47.2064zM561.5616 520.3968h-47.8208a46.7968 46.7968 0 0 0-5.3248-16.4864 41.8816 41.8816 0 0 0-10.3424-12.4416 45.568 45.568 0 0 0-14.6432-7.8336 55.9104 55.9104 0 0 0-17.7664-2.7136c-11.5712 0-21.6576 2.8672-30.208 8.6016-8.6016 5.632-15.2576 13.9776-19.968 24.8832a98.56 98.56 0 0 0-7.1168 39.4752c0 15.9232 2.3552 29.3376 7.1168 40.1408 4.7616 10.8544 11.4688 19.0464 20.0704 24.576 8.5504 5.5296 18.4832 8.2944 29.7472 8.2944 6.3488 0 12.1856-0.8704 17.5616-2.56a42.1888 42.1888 0 0 0 24.9856-19.2 46.4384 46.4384 0 0 0 5.888-15.872l47.8208 0.2048a89.088 89.088 0 0 1-29.0304 55.0912c-8.192 7.424-18.0224 13.312-29.44 17.664a108.288 108.288 0 0 1-38.5024 6.4512 105.472 105.472 0 0 1-53.504-13.5168 96.0512 96.0512 0 0 1-37.0688-39.168c-9.0112-17.1008-13.5168-37.7856-13.5168-62.1056 0-24.3712 4.608-45.056 13.7216-62.1568a95.744 95.744 0 0 1 37.3248-39.0656 104.5504 104.5504 0 0 1 53.0432-13.5168c12.9024 0 24.9344 1.792 35.9936 5.4272 11.1104 3.6352 20.992 8.96 29.5424 15.9232 8.6016 6.912 15.5648 15.36 20.992 25.4464 5.4272 10.0352 8.9088 21.504 10.4448 34.4576zM849.92 553.8816c0 24.3712-4.6592 45.056-13.8752 62.208a96.1024 96.1024 0 0 1-37.5296 39.168 106.0864 106.0864 0 0 1-53.248 13.4144c-19.8656 0-37.6832-4.5056-53.4528-13.5168a96.3072 96.3072 0 0 1-37.4272-39.168c-9.1648-17.1008-13.7216-37.7856-13.7216-62.1056 0-24.3712 4.608-45.056 13.7216-62.1568 9.1648-17.1008 21.6576-30.1056 37.376-39.0656a105.7792 105.7792 0 0 1 53.504-13.5168c19.712 0 37.4272 4.5056 53.248 13.5168 15.872 8.96 28.3648 21.9648 37.5296 39.0656 9.216 17.1008 13.824 37.7856 13.824 62.1568z m-47.9232 0c0-15.7696-2.3552-29.0816-7.1168-39.936a54.016 54.016 0 0 0-19.712-24.6272 53.1456 53.1456 0 0 0-29.9008-8.3968c-11.4176 0-21.4016 2.7648-29.9008 8.3968-8.4992 5.632-15.104 13.824-19.8656 24.6272-4.608 10.8544-6.9632 24.1664-6.9632 39.936 0 15.7696 2.304 29.0816 6.9632 39.936 4.7616 10.8544 11.3664 19.0464 19.8656 24.6784 8.4992 5.5808 18.432 8.3968 29.9008 8.3968 11.4176 0 21.4016-2.816 29.9008-8.3968 8.4992-5.632 15.0528-13.824 19.712-24.6784 4.7616-10.8544 7.1168-24.1664 7.1168-39.936z" fill="#FFFFFF" p-id="2246"></path><path d="M102.4 870.4h819.2v51.2a51.2 51.2 0 0 1-51.2 51.2H153.6a51.2 51.2 0 0 1-51.2-51.2v-51.2z" fill="#00A1C2" p-id="2247"></path></svg>
