<svg viewBox="0 0 1024 1024" xmlns="http://www.w3.org/2000/svg"><path d="M870.4 972.8H153.6a51.2 51.2 0 0 1-51.2-51.2V102.4a51.2 51.2 0 0 1 51.2-51.2h512v153.6a102.4 102.4 0 0 0 102.4 102.4h153.6v614.4a51.2 51.2 0 0 1-51.2 51.2z" fill="#F66262" p-id="1830"></path><path d="M750.9504 307.2a85.3504 85.3504 0 0 1-85.4016-85.3504V102.4h-563.2a51.2 51.2 0 0 1 51.2-51.2h512l256 256h-170.5984z" fill="#FFBABA" p-id="1831"></path><path d="M102.4 870.4h819.2v51.2a51.2 51.2 0 0 1-51.2 51.2H153.6a51.2 51.2 0 0 1-51.2-51.2v-51.2z" fill="#E91B1B" p-id="1832"></path><path d="M236.2368 811.7248A55.7568 55.7568 0 0 1 204.8 761.1904c0-14.6944 0-59.2896 164.4544-130.56a1187.7888 1187.7888 0 0 0 86.6816-202.8032c-21.0432-42.496-63.3856-141.1584-32.2048-193.0752A58.4704 58.4704 0 0 1 476.2112 204.8h5.12a61.44 61.44 0 0 1 48.2304 24.2688c23.3984 32.4096 21.0432 98.304-6.7072 190.8224a498.176 498.176 0 0 0 99.3792 128.3584c34.1504-7.0144 68.9152-10.752 103.7824-11.264a109.7728 109.7728 0 0 1 81.4592 27.0336 52.9408 52.9408 0 0 1 13.5168 39.6288c0 62.7712-63.0784 62.7712-89.9584 62.7712h-0.4608a219.2384 219.2384 0 0 1-125.2864-49.8176c-66.2016 15.104-131.072 35.84-193.7408 61.952C358.7072 771.84 309.1456 819.2 264.704 819.2a51.2 51.2 0 0 1-28.4672-7.424z m216.3712-198.656c30.72-10.6496 63.5904-20.48 95.1296-28.0576l-4.2496-4.3008h5.12c-18.9952-19.968-36.352-41.472-52.0192-64.1536l-0.768 1.536-1.0752-1.0752a1351.4752 1351.4752 0 0 1-42.1376 96.0512z m252.8256-13.312a177.664 177.664 0 0 0 34.7648 5.0688c4.5056 0 8.96-0.512 13.3632-1.3824a77.1072 77.1072 0 0 0-29.5424-4.096c-6.4 0.1024-12.3392 0.1024-18.5344 0.4096h-0.0512z m-223.744-270.7968a136.3968 136.3968 0 0 0-2.048-61.44h-1.9968c-3.84 20.48-2.4064 41.6256 4.096 61.44h-0.0512z" fill="#FFFFFF" p-id="1833"></path></svg>
