<svg viewBox="0 0 1024 1024" xmlns="http://www.w3.org/2000/svg"><path d="M428.25955555 895.54488889l253.38311112-735.80088889c0.22755555-0.56888889 0.34133333-1.25155555 0.45511111-1.82044445L428.25955555 895.54488889z" p-id="1904"></path><path d="M681.75644445 121.40088889h-76.8c-3.86844445 0-7.39555555 2.50311111-8.64711112 6.144L333.02755555 892.01777778c-0.34133333 0.91022222-0.45511111 1.93422222-0.4551111 2.95822222 0 5.00622222 4.096 9.10222222 9.10222222 9.10222222h77.14133333c3.86844445 0 7.39555555-2.50311111 8.64711111-6.144l0.79644444-2.38933333 253.83822223-737.62133334 8.41955555-24.34844444c0.34133333-0.91022222 0.45511111-1.93422222 0.45511112-2.95822222-0.11377778-5.12-4.096-9.216-9.216-9.216z m333.824 379.33511111c-0.91022222-1.13777778-1.93422222-2.16177778-3.072-3.072l-249.17333334-194.90133333c-3.98222222-3.072-9.67111111-2.38933333-12.74311111 1.59288888-1.25155555 1.59288889-1.93422222 3.52711111-1.93422222 5.57511112v92.50133333c0 2.84444445 1.25155555 5.46133333 3.52711111 7.168l130.84444444 102.4-130.84444444 102.4c-2.16177778 1.70666667-3.52711111 4.32355555-3.52711111 7.168v92.50133333c0 5.00622222 4.096 9.10222222 9.10222222 9.10222222 2.048 0 3.98222222-0.68266667 5.57511111-1.93422222l249.17333334-194.90133333c7.85066667-6.144 9.32977778-17.63555555 3.072-25.6z m-754.91555556-197.97333333l-249.17333334 194.90133333c-1.13777778 0.91022222-2.16177778 1.93422222-3.072 3.072-6.144 7.96444445-4.77866667 19.34222222 3.072 25.6l249.17333334 194.90133333c1.59288889 1.25155555 3.52711111 1.93422222 5.57511111 1.93422222 5.00622222 0 9.10222222-4.096 9.10222222-9.10222222v-92.50133333c0-2.84444445-1.25155555-5.46133333-3.52711111-7.168l-130.84444444-102.4 130.84444444-102.4c2.16177778-1.70666667 3.52711111-4.32355555 3.52711111-7.168v-92.50133333c0-2.048-0.68266667-3.98222222-1.93422222-5.57511112-3.072-3.98222222-8.76088889-4.66488889-12.74311111-1.59288888z" p-id="1905"></path></svg>
