<svg viewBox="0 0 1024 1024" xmlns="http://www.w3.org/2000/svg"><path d="M128 507.52c0 44.8 4.16 94.08 18.816 134.4h284.608c10.496-44.8 14.656-82.88 14.656-129.92 0-42.56-4.16-87.36-14.656-129.92H142.72C134.336 422.4 128 460.48 128 507.52z m571.264-125.44H483.84c10.432 38.08 14.592 82.88 14.592 129.92 0 47.04-4.16 82.88-14.592 129.92h215.488c67.008 0 119.296-56 119.296-129.92 0-73.92-52.288-129.92-119.296-129.92z m-527.36-60.48h244.864c-29.248-67.2-62.72-129.92-100.48-179.2-62.72 44.8-117.12 105.28-144.32 179.2z m569.216 0c62.784 0 115.136-26.88 152.768-71.68A413.12 413.12 0 0 0 546.56 64c-71.168 0-129.792 17.92-188.352 51.52 48.128 56 81.6 127.68 106.688 201.6l276.224 4.48z m-575.424 380.8h244.8c-25.088 67.2-56.512 127.68-100.48 172.48a421.76 421.76 0 0 1-144.32-172.48z m577.536 0c62.784 0 115.072 26.88 152.768 71.68C818.56 886.08 684.608 960 546.56 960c-71.168 0-129.792-22.4-188.352-49.28 48.128-56 81.6-129.92 106.688-201.6l278.4-6.72z" fill="#4D3CFF" p-id="1994"></path></svg>
