<svg viewBox="0 0 1024 1024" xmlns="http://www.w3.org/2000/svg"><path d="M682.666667 85.333333v85.333334h-42.666667v138.368c0 49.408 10.709333 98.176 31.402667 143.018666l182.698666 395.776A64 64 0 0 1 795.989333 938.666667H228.010667a64 64 0 0 1-58.112-90.837334l182.698666-395.776A341.077333 341.077333 0 0 0 384 309.034667V170.666667H341.333333V85.333333h341.333334z m-111.445334 341.376h-118.442666c-4.437333 15.488-9.813333 30.762667-15.957334 45.696l-6.741333 15.402667L261.333333 853.333333h501.290667l-168.704-365.525333a425.728 425.728 0 0 1-22.698667-61.098667zM469.333333 309.034667c0 10.794667-0.426667 21.589333-1.237333 32.341333h87.808a374.485333 374.485333 0 0 1-0.896-15.530667L554.666667 309.034667V170.666667h-85.333334v138.368z" p-id="2040"></path></svg>
