<svg viewBox="0 0 1024 1024" xmlns="http://www.w3.org/2000/svg"><path d="M256.832 684.928l-59.52 172.224 1.856 0.704c8.96-10.048 17.728-20.224 26.688-30.208 15.04-16.64 30.592-32.832 54.4-41.6 12.928-4.608 31.168-6.08 40.256 3.84a24.96 24.96 0 0 1 6.528 21.44c-2.56 17.28-9.216 33.792-14.912 50.56-7.488 21.696-15.616 43.328-23.04 65.024-1.152 2.944-2.368 7.04 1.728 9.216 4.032 2.176 7.68-0.448 10.24-2.752 6.4-5.504 13.76-10.304 19.072-16.64 2.24-2.624 4.224-6.208 9.28-3.456 5.376 2.944 2.368 6.016-0.256 8.832-14.08 14.912-29.12 28.928-49.792 37.888h-18.432c-9.472-6.208-12.416-13.568-9.792-23.872 7.04-28.608 18.56-56.128 27.52-84.352 3.712-11.52 9.408-22.848 9.984-35.136 0.384-7.936-2.56-10.24-11.968-9.408-8.576 0.64-14.848 5.184-21.056 9.664-21.312 15.36-35.136 35.456-50.176 54.848-14.208 18.24-26.24 37.248-32.256 58.688-2.304 8.064-3.84 18.24-9.6 23.04-6.464 5.44-19.712 1.28-30.016 1.792L128 955.392v-4.672c7.168-12.16 9.792-25.6 14.528-38.4 10.624-28.8 19.968-57.984 29.888-87.04 12.288-35.904 24.64-71.936 36.864-107.968 3.008-8.704-8.192-17.28-19.52-14.528-3.072 0.64-5.888 0.768-8.96 0.96-3.584 0.256-4.928-1.024-4.672-4.032 0.128-2.56-0.384-4.608 4.352-5.12 23.872-2.816 47.68-6.208 71.616-9.344 1.344-0.192 2.432-1.792 4.736-0.32z m608.512 98.688c14.848 1.792 23.168 9.6 30.656 18.944v18.56c-3.904 2.752-3.52 7.04-5.952 10.56-14.464 20.096-37.44 30.464-62.272 38.72a274.56 274.56 0 0 1-66.88 12.48c-3.072 0.192-7.744 0-8.832 3.84-4.224 14.08-0.96 26.688 10.24 38.144 16.512 16.896 45.76 16.512 66.816 8.448 15.232-5.76 28.288-14.464 41.728-22.4 2.944-1.856 4.544-2.688 7.232 0.576 2.304 2.688 2.048 3.84-0.64 6.08a204.8 204.8 0 0 1-50.56 31.872c-10.944 4.864-23.04 6.784-34.176 10.496h-31.424c-8.768-3.648-18.56-4.928-26.432-10.496a55.936 55.936 0 0 1-24.832-57.216c3.072-21.376 13.888-40.32 28.8-57.856 21.056-24.832 48.384-42.432 84.096-49.536 13.952-2.752 28.352-3.072 42.432-1.216z m-194.368-0.96c10.944 0 20.736 6.528 23.68 14.72 4.096 10.56 1.088 20.736-3.328 30.272-10.88 23.232-28.672 43.008-46.848 62.528-23.232 24.704-49.92 46.72-75.2 69.824H558.08a1376.192 1376.192 0 0 0-5.12-69.312 409.92 409.92 0 0 0-9.6-59.264 75.84 75.84 0 0 0-6.08-17.28c-6.784-12.8-14.208-15.872-30.592-12.352-5.952 1.28-6.4-1.472-7.296-4.096-1.28-3.456 1.28-3.84 4.928-4.48 18.624-2.88 37.12-6.208 55.552-9.92 5.376-1.152 6.528 0.128 8.384 3.84 8.256 16.96 12.416 34.56 15.616 52.608 4.352 25.408 7.232 51.008 7.36 76.672 0 1.536-0.128 3.456 1.856 4.032 3.456 0.96 4.8-1.92 6.272-3.456 14.016-13.888 28.48-27.52 40.768-42.752 10.624-13.056 23.04-25.088 29.696-40.32 3.52-8.192 1.152-13.568-6.656-18.624-7.36-4.992-14.848-10.432-12.032-19.84 2.432-8.256 9.856-12.864 19.776-12.8h0.064z m-213.248 5.568l-32.768 98.048c-4.608 13.568-9.6 26.88-14.08 40.512-1.28 3.648-1.728 7.552 2.816 10.56 5.12 3.392 8.192-0.96 10.944-2.624 8.896-5.504 15.808-12.928 22.208-20.288 2.816-3.2 4.544-3.392 7.488-1.536 3.456 2.112 5.44 4.16 1.92 8.192-14.4 16.192-30.848 30.272-53.12 38.912h-18.56c-14.592-6.528-16.768-13.888-11.776-29.248 9.92-30.272 20.736-60.352 30.912-90.624 3.328-9.856 8.192-19.584 8.64-29.952 0.384-7.296-6.144-12.096-14.656-10.496-3.968 0.768-7.808 1.728-11.648 1.152-2.24-0.32-5.76 4.48-6.848-1.024-0.64-3.968 0.512-7.04 5.888-7.872l36.736-4.672c10.048-1.344 20.224-2.752 30.208-4.416 5.76-0.832 7.232 0.768 5.76 5.376z m379.52 5.184a68.992 68.992 0 0 0-25.344 7.488c-31.616 17.088-48.64 42.048-57.728 72.832 12.608-2.24 24.256-3.52 35.328-6.4 29.696-7.552 55.552-19.648 69.632-44.416 4.48-7.808 5.312-15.68-0.64-22.976-4.992-5.76-13.248-7.424-21.248-6.528z m-381.824-86.4a25.152 25.152 0 0 1 16.512 5.44c4.224 3.264 6.656 8.32 6.72 13.568 0 11.968-9.792 21.312-23.04 20.864-11.328-0.384-25.344-8.512-22.848-20.096-1.664-12.096 10.56-19.584 22.656-19.712z m244.416-545.856l-351.936 0.32c-23.68 36.672-26.112 82.432-26.112 82.432h404.352s-3.2-46.016-26.368-82.752z m-176 196.672c33.024 0 61.568 19.968 74.368 48.704h196.224s4.672-57.984-15.168-109.696l-511.36-0.256c-19.456 53.312-14.848 109.952-14.848 109.952H449.28c12.8-29.376 42.048-48.448 74.432-48.704z m322.944 119.936l-249.088 0.192c-13.12 28.8-41.984 47.36-73.92 47.616-31.68 0-60.48-18.56-73.984-47.552L200.96 477.568c-24.448 65.92-14.72 136.256-14.72 136.256h675.2s10.368-72.128-14.72-136v-0.064zM523.776 64c-44.544 0-84.032 17.344-108.672 55.68H632.32C607.744 81.28 568.256 64 523.712 64" fill="#00BEBA" p-id="1859"></path></svg>
