<svg viewBox="0 0 1024 1024" xmlns="http://www.w3.org/2000/svg"><path d="M710.4 593.472c-35.904 0-67.84 16.256-89.728 42.752L522.88 579.2a177.92 177.92 0 0 0 9.984-55.04c0-22.4-3.968-42.688-11.968-63.04l107.648-63.168c21.952 20.352 49.92 34.624 83.776 34.624C778.176 432.64 832 377.6 832 310.4s-53.824-122.24-119.68-122.24c-65.728 0-119.552 55.04-119.552 122.24 0 12.16 1.92 24.448 5.952 36.672l-107.648 63.104a158.272 158.272 0 0 0-97.728-54.976V245.248c33.92-12.224 59.84-46.848 59.84-85.568C451.2 104.704 411.328 64 361.472 64s-89.728 40.704-89.728 91.648c0 40.704 25.92 73.28 59.84 85.504v109.952C251.84 365.44 192 436.672 192 522.24s59.84 156.8 139.52 171.072v89.6c-33.856 12.16-59.776 46.848-59.776 85.504 0 50.944 39.872 91.648 89.728 91.648 49.856 0 89.728-40.704 89.728-91.648 0-40.704-25.92-73.28-59.84-85.504v-89.6c41.856-8.192 75.776-30.592 101.696-61.12l99.712 59.072c-1.984 8.128-1.984 16.32-1.984 24.448 0 67.2 53.76 122.176 119.616 122.176 65.792 0 119.616-55.04 119.616-122.24 0-67.2-53.824-122.112-119.68-122.112z" fill="#0486FE" p-id="2264"></path></svg>
