<svg viewBox="0 0 1024 1024" xmlns="http://www.w3.org/2000/svg"><path d="M960 286.016C960 82.752 785.472 64 785.472 64c-34.88 18.752-104.64 184.96-130.88 268.16-26.24 83.264-183.296 194.176-183.296 194.176 87.296 0 174.464 73.856 174.464 221.696 0 147.904-174.464 184.832-174.464 184.832h279.296c191.936 0 156.992-258.816 156.992-258.816C907.584 507.392 768 489.28 768 489.28c174.528 0 192-203.264 192-203.264z m-232.704-221.76H307.712S116.16 885.44 98.816 922.688C81.472 960 64 960 64 960h191.488c226.24 0 226.24-242.496 226.24-242.496 0-186.56-174.016-223.936-174.016-223.936 174.016-18.624 208.832-167.936 208.832-167.936 28.736-231.104 164.48-258.752 210.752-261.376z m0 0h15.488s-5.76-0.576-15.488 0z" fill="#3C78FF" p-id="1994"></path></svg>
