<svg viewBox="0 0 1024 1024" xmlns="http://www.w3.org/2000/svg"><path d="M302.336 263.104a164.032 164.032 0 0 0-27.52 2.752v0.96h1.408c5.12 8.128 14.272 13.888 21.056 21.184l15.104 24.96 1.408-1.28c9.216-5.12 13.76-13.184 13.76-25.728-4.224-3.904-4.48-7.424-7.872-10.88-3.072-5.376-11.776-7.936-17.408-11.968z m29.44 401.92l0.64-4.352 1.728 3.84c16.896 27.52 43.904 56.064 72.256 78.848l8.576 6.656c1.92 1.472 3.648 3.008 6.016 5.248l12.288 12.544c8.064 8.128 14.272 13.248 21.312 16.896l2.56 1.28 1.088 1.472h2.176l1.728 0.64 22.848 8.448v-38.784H474.88l-3.008-2.496-2.56-2.112a43.776 43.776 0 0 1-3.456-2.688 301.952 301.952 0 0 1-29.056-33.728A821.184 821.184 0 0 1 372.352 610.56a430.144 430.144 0 0 1-8.96-19.072l-16-37.312a25.856 25.856 0 0 1-1.536-3.84l-1.024-3.904c-3.136-11.072-5.248-15.744-12.928-20.48l-14.464-8.96-9.088 13.312a146.56 146.56 0 0 1-7.36 9.6l-3.328 4.032c-9.856 12.032-14.976 19.264-19.072 29.184l-1.6 3.84c-5.632 13.888-8.448 27.712-11.392 51.648l-1.088 8.512-5.504-13.44c-16.576-40.192-18.88-105.024-4.864-150.08l7.552-20.16a453.12 453.12 0 0 0 3.84-11.52l1.664-5.76c4.224-14.784 5.376-25.6 1.792-34.112l-0.64-1.408 0.384 1.088a45.76 45.76 0 0 0-12.544-19.136l-7.68-7.872a30.72 30.72 0 0 1-3.2-3.648 185.728 185.728 0 0 1-19.328-35.392l-4.48-10.88a466.56 466.56 0 0 1-7.552-22.528l-9.344-30.08a313.28 313.28 0 0 0-15.488-40.832 113.28 113.28 0 0 0-5.312-10.24l-3.328-5.632a320.704 320.704 0 0 0-8.128-12.416l-13.568-19.328a172.992 172.992 0 0 0-5.12-7.04L145.408 166.4A118.272 118.272 0 0 1 128 139.648l-1.152-2.56a23.744 23.744 0 0 1-2.176-8.64l1.088-2.432 3.968-2.112c-1.472 1.216 10.816 4.16 17.728 7.68 25.024 10.496 38.784 17.152 51.904 25.664l5.376 3.648 7.04 6.272c9.6 8.576 15.936 13.056 25.152 15.36l4.48 0.64h10.24l-2.304-0.512c6.336 1.472 12.48 2.24 20.544 2.816l10.432 0.512c14.016 0.64 19.712 1.28 25.408 2.944 26.24 8.512 52.224 21.376 80.064 39.04a509.76 509.76 0 0 1 177.28 197.76c1.408 2.88 2.752 5.76 4.096 9.024l10.048 26.56 4.864 11.392 13.632 29.888 20.352 43.52 14.72 33.536c11.648 25.664 20.096 40.96 31.872 56.32 6.272 8.512 16.768 14.08 34.048 19.968l28.288 8.832c1.728 0.64 3.2 1.088 4.352 1.6l10.368 4.096 8.32 3.136c9.984 3.648 15.424 5.952 19.136 8.128l8.768 5.568 13.632 8.96c9.472 6.464 20.352 14.336 34.944 24.96l12.416 7.808-3.584 0.256c-26.368 1.856-49.28 6.4-69.76 13.888l-9.536 3.712-5.12 1.536c-16.704 4.608-25.728 10.304-27.392 25.152l-0.704 6.784 5.248 4.928 1.088 2.624 2.112 5.696a47.36 47.36 0 0 0 3.648 7.488c8.576 14.912 22.016 31.424 33.856 40.512 14.72 11.84 26.56 20.608 38.592 28.48l7.488 4.48c4.992 2.944 10.24 5.632 17.152 8.96l23.232 10.944c10.432 5.12 16.448 8.384 23.04 12.608l6.656 4.544 25.6 18.816c2.112 1.536 4.16 3.008 6.272 4.416l1.28 1.088 3.2 3.2a41.6 41.6 0 0 0 18.112 12.928L960 960v-28.544l-3.392-4.032a13.12 13.12 0 0 1-1.792-2.88l-2.048-4.352a56.256 56.256 0 0 0-5.248-10.56 166.272 166.272 0 0 0-8.064-8.32l-7.424-7.104a122.24 122.24 0 0 1-3.392-3.648 286.4 286.4 0 0 0-63.68-62.208l-7.808-5.12-23.04-13.76-5.248-3.264a168.832 168.832 0 0 1-13.056-9.152l-2.048-1.664 17.408-4.864c5.312-1.408 10.496-2.368 17.664-3.2l20.544-2.432c7.936-1.024 13.248-1.92 19.84-3.52 6.848-1.792 13.824-3.84 21.632-6.208l19.072-6.08v-21.312l-4.096-4.224a109.44 109.44 0 0 1-9.984-12.032l-8.32-11.072a103.808 103.808 0 0 0-11.2-12.672c-30.848-27.52-64-52.672-99.136-75.136a183.552 183.552 0 0 0-23.424-12.736l-27.264-12.16-6.4-2.944-5.504-2.688a49.728 49.728 0 0 0-7.04-3.072l-9.28-3.2c-0.448-0.128-0.512-0.128-0.384 0.256a108.288 108.288 0 0 1-13.376-23.04l-9.472-20.8c-12.8-25.408-24.96-51.2-36.48-77.12l-16.32-37.888-10.688-27.008a213.248 213.248 0 0 0-14.912-30.848c-60.16-100.672-126.08-164.736-232.256-228.096-14.464-8.32-28.224-13.312-50.752-19.2l-29.248-7.104-3.456-0.512-39.68-2.304-2.816-1.92a105.088 105.088 0 0 1-4.032-3.264l-12.608-10.752a78.848 78.848 0 0 0-2.816-2.112c-27.2-17.216-55.168-30.784-81.6-36.864-41.088-9.472-74.176 1.28-88.512 37.12-11.328 28.096-2.24 54.72 20.8 85.76l16.768 21.952 10.88 14.592 7.104 9.856c5.312 7.552 8.96 13.632 11.648 19.584l1.152 3.136 1.92 6.784 2.624 10.624 0.896 2.88 12.8 37.312 5.44 15.232c5.312 14.08 10.048 25.472 15.36 36.032l6.208 11.648c5.568 10.304 9.728 17.216 14.4 23.872l2.368 3.328c0.832 1.28 1.792 2.432 2.816 3.584l6.72 6.592 0.832 0.96-0.96 2.176a85.632 85.632 0 0 0-4.736 14.912l-4.416 20.544a87.232 87.232 0 0 1-1.216 4.416c-21.568 69.696-13.824 157.056 18.56 211.136 9.088 14.08 16.512 23.424 26.752 31.68 16.64 13.632 36.352 18.304 56.704 9.728 20.224-8.192 27.2-20.544 31.616-47.808l-0.128 0.064z" fill="#35A3FF" p-id="1724"></path></svg>
