<svg viewBox="0 0 1024 1024" xmlns="http://www.w3.org/2000/svg"><path d="M259.008 629.12c26.88 31.168 67.2 49.28 109.696 49.28h315.392c42.56 0 82.88-18.048 109.888-49.28h109.568c-36.608 84.224-123.328 139.072-219.456 138.88H368.704c-95.936-0.064-182.336-54.848-218.88-138.88h109.184zM958.08 490.56l-13.056 19.2h-65.152a37.12 37.12 0 0 0-35.84 25.728h107.776l-12.992 19.328h-94.848c4.544 15.232 19.2 25.664 35.904 25.6H960l-13.056 19.776h-68.48c-31.936 0-57.856-24.576-57.856-54.848s25.92-54.784 57.92-54.784h79.616z m-602.752-0.576a37.952 37.952 0 0 1 36.672 36.928 37.952 37.952 0 0 1-36.672 36.928l-10.24 0.192 44.544 35.328h-32.32l-66.112-54.848h62.208a18.56 18.56 0 0 0 13.184-5.12 17.344 17.344 0 0 0 5.504-12.544 16.64 16.64 0 0 0-5.504-12.48 19.392 19.392 0 0 0-13.184-5.184h-72.32v90.432h-22.912V489.92h97.152z m-166.592 0c32 0 57.856 24.576 57.856 54.848s-25.92 54.784-57.856 54.784H121.92c-32 0-57.92-24.512-57.92-54.784s25.92-54.848 57.92-54.848H188.8z m289.792-1.024c5.376 0 10.432 2.496 13.568 6.656l70.08 103.744h-26.048l-12.352-18.88h-60.032l-13.056-19.328v-0.576h59.2l-31.232-47.68-57.92 86.336h-25.728l69.888-103.616a16.96 16.96 0 0 1 13.632-6.656z m243.712 1.024V580.48h103.488l-12.288 18.752h-101.312a12.352 12.352 0 0 1-8.128-3.2 10.496 10.496 0 0 1-3.2-7.36V489.92h21.44z m-33.984-0.384l-13.056 19.2H610.112a37.76 37.76 0 0 0-32.32 17.664 33.728 33.728 0 0 0 0 35.328 37.76 37.76 0 0 0 32.32 17.728h79.936l-13.056 19.264-68.48 0.448c-32 0-57.856-24.576-57.856-54.848s25.92-54.784 57.92-54.784h79.744z m-501.12 20.16h-64c-20.608 0-37.312 15.808-37.312 35.328 0 19.52 16.64 35.392 37.312 35.392h64a38.528 38.528 0 0 0 26.496-10.88 33.088 33.088 0 0 0 7.936-37.952 37.568 37.568 0 0 0-34.432-21.888zM684.096 320c96.128-0.256 182.912 54.656 219.456 138.88h-109.568a145.088 145.088 0 0 0-109.888-49.28H368.704c-42.496 0-82.816 18.112-109.696 49.28H149.76C186.304 374.784 272.768 320 368.704 320h315.392z" fill="#F56C6C" p-id="2129"></path></svg>
