<svg viewBox="0 0 1024 1024" xmlns="http://www.w3.org/2000/svg"><path d="M736 64c27.072 0 53.952 4.48 80.576 13.632 26.624 9.088 50.88 22.272 72.704 39.552 20.928 18.176 37.952 40.896 51.072 68.096 13.12 27.2 19.648 58.56 19.648 94.08v44.544h-133.632v-44.544l-0.384-11.072c-1.92-24.96-10.752-43.776-26.432-56.384a98.112 98.112 0 0 0-63.552-21.696c-24.448 0-45.632 7.232-63.552 21.696-17.92 14.4-26.88 36.928-26.88 67.456v465.28l0.448 11.072c1.92 24.96 10.752 43.776 26.432 56.384 17.92 14.464 39.04 21.696 63.552 21.696 24.448 0 45.632-7.232 63.552-21.696 17.92-14.4 26.88-36.928 26.88-67.456v-165.76h-106.176V467.392H960v277.184l-0.384 15.616c-1.6 30.528-8.064 57.088-19.264 79.68a197.76 197.76 0 0 1-51.072 65.6c-21.824 18.176-46.08 31.808-72.704 40.832A248.32 248.32 0 0 1 736 960a248.32 248.32 0 0 1-80.576-13.632 212.8 212.8 0 0 1-71.36-40.832 190.464 190.464 0 0 1-52.416-65.6C518.528 813.568 512 781.76 512 744.64v-465.28l0.384-14.976c1.6-29.44 8.064-55.744 19.264-79.104a199.68 199.68 0 0 1 52.416-68.096c20.928-17.28 44.736-30.464 71.36-39.552A248.32 248.32 0 0 1 736 64zM241.472 64l16 0.384c25.92 1.28 49.28 5.76 69.888 13.44 24.768 9.216 47.168 25.6 67.264 49.088 20.096 23.488 34.048 50.944 41.792 82.432 7.68 31.488 11.584 74.048 11.584 127.744 0 40.32-2.112 74.24-6.4 101.952a224.384 224.384 0 0 1-27.264 78.016A180.16 180.16 0 0 1 349.44 585.6c-23.68 14.336-53.888 22.4-90.56 24.192l-16.128 0.384h-60.352V960H64V64h177.472z m2.368 120.832h-61.504v304.512h56.832c24 0 42.56-3.776 55.68-11.328 13.184-7.552 22.848-18.048 28.992-31.424 6.208-12.608 9.92-28.16 11.072-46.592 1.152-18.432 1.728-39.04 1.728-61.632 0-20.992-0.384-40.96-1.152-59.776a138.496 138.496 0 0 0-10.432-49.728 69.568 69.568 0 0 0-27.84-32.704c-12.416-7.552-30.208-11.328-53.376-11.328z" fill="#50b653" p-id="2928"></path></svg>
