<svg viewBox="0 0 1024 1024" xmlns="http://www.w3.org/2000/svg"><path d="M241.472 64l16 0.384c25.92 1.28 49.28 5.76 69.888 13.44 24.768 9.216 47.168 25.6 67.264 49.088 20.096 23.488 34.048 50.944 41.792 82.432 7.68 31.488 11.584 74.048 11.584 127.744 0 40.32-2.112 74.24-6.4 101.952a224.384 224.384 0 0 1-27.264 78.016A180.16 180.16 0 0 1 349.44 585.6c-23.68 14.336-53.888 22.4-90.56 24.192l-16.128 0.384h-60.352V960H64V64h177.472z m351.296 0l109.888 356.16h2.688L815.232 64H960l-187.648 517.184V960H635.648V581.184L448 64h144.768zM243.84 184.832h-61.504v304.512h56.832c24 0 42.56-3.776 55.68-11.328 13.184-7.552 22.848-18.048 28.992-31.424 6.208-12.608 9.92-28.16 11.072-46.592 1.152-18.432 1.728-39.04 1.728-61.632 0-20.992-0.384-40.96-1.152-59.776a138.496 138.496 0 0 0-10.432-49.728 69.568 69.568 0 0 0-27.84-32.704c-12.416-7.552-30.208-11.328-53.376-11.328z" fill="#467dee" p-id="1724"></path></svg>
