<svg viewBox="0 0 1024 1024" xmlns="http://www.w3.org/2000/svg"><path d="M294.4 64c32.448 0 62.08 5.76 88.96 17.28 26.88 11.584 50.112 26.88 69.76 45.824 39.232 39.616 58.88 84.992 58.88 136.128v61.888H381.44v-28.48l-0.448-12.16a127.232 127.232 0 0 0-20.672-62.72c-14.08-20.992-37.76-31.552-71.04-31.552-17.92 0-32.448 3.328-43.52 9.92a84.672 84.672 0 0 0-26.88 24.768c-6.848 10.688-11.52 22.912-14.08 36.48-2.56 13.632-3.84 27.84-3.84 42.688 0 17.344 0.64 31.808 1.92 43.328 1.28 11.52 4.48 21.888 9.6 30.976 5.12 9.024 12.608 16.896 22.4 23.488 9.792 6.592 23.232 13.184 40.32 19.84l99.84 38.336 14.08 5.504c22.592 9.472 41.408 20.224 56.32 32.256 17.92 14.4 32 31.104 42.24 50.112 9.408 19.84 15.808 42.24 19.2 67.456 3.392 25.152 5.12 53.76 5.12 86.016 0 37.12-3.84 71.552-11.52 103.296s-20.032 58.816-37.12 81.088c-17.92 23.04-41.408 41.216-70.4 54.4-28.992 13.248-64.448 19.84-106.24 19.84a239.36 239.36 0 0 1-88.32-16.064 210.88 210.88 0 0 1-117.12-110.784A195.328 195.328 0 0 1 64 750.848v-47.04h130.56v39.616l0.448 9.728c1.728 19.264 8.576 36.864 20.672 52.736 14.08 18.56 37.76 27.904 71.04 27.904 22.208 0 39.488-3.136 51.84-9.28 12.352-6.208 21.952-15.104 28.8-26.624 6.848-11.52 10.88-25.408 12.16-41.472 1.28-16.064 1.92-34.048 1.92-53.824 0-23.104-0.832-42.112-2.56-56.96a95.488 95.488 0 0 0-10.24-35.84 70.912 70.912 0 0 0-23.68-22.272 307.84 307.84 0 0 0-39.04-18.56l-93.44-37.12-14.912-6.272c-48.128-21.44-80.896-48.896-98.368-82.24-19.2-36.736-28.8-82.752-28.8-137.984 0-33.024 4.672-64.384 14.08-94.08 9.408-29.696 23.488-55.296 42.24-76.736 17.92-21.44 40.768-38.528 68.48-51.328C222.912 70.4 256 64 294.4 64z m400.32 0v383.808h146.56V64H960v896h-118.656V561.088h-146.688V960H576V64h118.656z" fill="#fd6f5d" p-id="1724"></path></svg>
