<svg viewBox="0 0 1024 1024" xmlns="http://www.w3.org/2000/svg"><path d="M613.888 510.4c-48.832 7.68-97.024 19.328-144 34.88-75.328 24.704-329.536 116.48-341.248 220.672-4.224 35.648 13.504 64 37.632 90.56 20.672 22.784 51.52 41.792 92.48 56.896l13.312 4.608c29.12 9.728 61.632 20.672 99.776 26.624 8.064 1.28 14.848 2.432 22.784 3.52l24.256 3.008c51.2 5.696 87.616 7.68 114.176 7.68 10.88 0 43.2 1.152 43.2 1.152s52.864-155.072 53.888-279.68c0.768-91.52 1.92-161.152 1.92-161.92l-0.832-11.52-17.28 3.52z m-122.24 60.8c43.776-13.952 53.76-12.992 78.08-17.664l-80 54.72c0.448-21.12 1.984-27.968 1.92-37.12z m-0.768 91.008a249.6 249.6 0 0 0 40.192 14.592c14.592 4.224 23.232 6.528 34.944 8.768l-83.456 62.4c3.84-33.6 6.976-56.704 8.32-85.76zM471.552 577.28c0 11.648-1.984 23.36-2.688 45.888-16.576-9.728-28.608-14.784-42.048-29.056 15.552-5.888 29.376-11.648 44.736-16.832z m61.056 259.84c-23.04 15.872-46.848 30.272-89.92 62.592 9.728-26.432 18.624-49.216 24.32-81.408 23.552 6.912 39.296 13.504 65.6 18.752zM353.536 623.488c16.768-7.488 31.36-16.832 48.64-23.68 10.816 12.544 20.288 21.312 42.88 35.52l-99.072 70.4c4.288-30.08 8.512-51.008 7.552-82.24z m111.168 34.432c-1.6 35.008-11.392 68.224-16.64 109.056l-14.08 11.648c-38.528-13.056-60.16-20.608-88-33.792 0.128-0.576-3.136-2.112-3.008-2.688L464.64 657.92z m-304.576 111.04c5.376-47.36 74.112-87.68 163.52-130.112 0.256 33.536-2.624 53.568-8.192 85.632l-3.84 2.688c-41.792-21.44-51.904-32.064-52.48-32.512l-29.952 2.688c19.456 16.64 40.64 30.976 63.168 42.944l-117.76 81.472c-10.688-17.984-17.088-30.4-14.464-52.8z m110.4 119.36c-38.144-14.016-57.408-27.072-75.904-47.424l112.32-76.544c-14.592 68.096-29.44 106.56-36.48 123.904v0.064z m63.68-120.192c24 11.264 45.568 22.848 76.992 34.112L305.344 880.64c9.92-26.944 18.56-64.192 28.864-112.512z m70.528 156.48c-10.624-1.28-15.552-2.112-26.56-3.84-30.464-4.736-40.32-10.752-64.896-17.92l119.488-87.232c2.752 0.896-1.28 0.64 1.536 1.536-8.128 47.104-12.288 77.376-29.568 107.52z m146.432 6.528c-17.92 0.32-59.52 2.112-112.576-2.56 64.192-48.64 102.08-72 127.36-88.896 4.352 0.704 5.12 1.28 9.472 1.92-7.296 36.288-11.712 62.592-24.32 89.536h0.064z m32.96-135.04c-4.608 2.688-7.04 8.128-19.328 16.128-34.112-6.016-61.312-7.808-91.008-16.512 0.64-3.84 2.112-11.072 2.624-14.912l120.256-88a1175.104 1175.104 0 0 1-12.48 103.232z m18.624-136.256l-8 5.632c-23.808-3.392-54.784-6.528-97.408-26.688l107.008-74.944c0 25.152 0.768 50.816-1.6 96z m283.712-220.096c-1.216-2.688-28.352-67.84-118.08-131.776a518.976 518.976 0 0 0-53.184-33.152s-9.92-5.568-10.688-5.632a659.328 659.328 0 0 0-122.88-48c-89.216-25.344-192.384-36.992-306.88-34.56l-17.92-0.832 17.408 16.512c86.464 95.616 59.904 205.44 32.64 267.392-31.36 71.168-89.536 139.072-90.368 140.288l-41.6 51.776 55.872-37.44c1.728-1.152 147.904-81.92 337.792-128.96 199.232-49.28 306.56-41.472 307.392-41.408l20.032 2.752-9.6-16.96zM576.192 249.408l4.992 1.536c24.768 7.04 34.752 13.056 57.216 22.144l-63.68 33.664c1.664-30.336 1.728-42.24 1.472-57.344z m-30.72-6.144c0.576 21.824-2.048 44.544-4.544 79.616l-13.056 12.16c-27.456-14.272-50.432-18.752-72.32-23.296-9.856-1.92-15.104-1.728-23.872-2.624 0.256-42.368-1.408-74.624-1.92-88.384 44.16 4.416 76.608 12.992 115.712 22.528zM428.288 340.096c7.872 0.896 13.568 0.448 22.4 2.304 20.096 4.224 21.888 5.12 40.192 13.44l-65.28 39.36c1.664-24.576 2.368-31.488 2.688-55.168z m-48.448 179.712c-49.6 21.824-64.32 36.864-92.672 53.632 18.112-29.824 36.416-39.36 47.04-57.792 31.168-53.568 54.656-58.496 54.656-58.496-10.24 48.128-8.96 62.656-8.96 62.656z m20.032-171.264c-0.64 25.984-2.368 31.616-3.84 50.88-13.824 6.656-14.72 7.68-20.8 9.152 1.152-32.896 7.744-39.808-1.92-73.472 8.32-1.088 10.24 0.192 26.944 0.768-0.064 6.592-0.192 5.888-0.384 12.672z m0-43.264c-21.056-0.64-24-1.792-32.64-0.384-12.352-29.44-22.08-49.92-50.88-86.848 36.8-0.192 50.752-0.832 84.992 1.92 0.384 10.688-1.28 40.832-1.536 85.312z m8.32 203.648c7.104-21.248 11.328-48.128 14.4-80.32 23.36-8.768 14.4-12.736 28.8-7.68 20.288 7.04 51.072 24.512 57.28 45.12l0.832 4.224c-38.272 10.304-68.032 24.896-101.312 38.656z m110.72-83.84c-11.328-12.48-13.248-14.848-30.336-22.528a46.848 46.848 0 0 0-18.176-4.544l48.192-30.848c4.48 2.56 7.36 6.784 11.712 9.6-3.84 29.12-2.624 29.056-11.328 48.256v0.128z m20.48 36.032c8.768-17.28 14.016-26.88 20.16-67.008 24.512 18.816 30.848 25.408 51.2 53.248-11.904 1.6-52.224 8.96-71.296 13.632v0.128z m28.16-103.296c0.64-6.528 2.368-14.784 3.008-21.76l99.392-49.92c4.48 3.2 9.152 6.016 14.08 8.448-1.536 3.584-33.664 56.64-56.576 115.52-23.04-29.056-35.904-35.392-59.968-52.416v0.128z m85.696 82.24l-8.768-11.52 61.44-121.6c70.528 34.048 128.64 110.72 132.416 117.056 0-0.064-144.512 3.712-185.088 16v0.064zM262.528 156.416l36.032 1.152s23.808-17.92 33.792-23.296c5.184-2.816 22.4-9.216 22.4-9.216l14.4 22.592 30.336 35.968-27.648-57.408 113.792 29.888-39.424 14.08-33.024 14.208 91.136-21.952 19.84 25.92 31.168 0.96s-19.2-33.92-26.88-44.352C512 123.008 454.72 64 454.72 64s-77.376 22.464-125.12 41.6c-36.416 14.464-67.136 50.816-67.136 50.816z m197.248-58.88l40.192 51.584-114.56-37.12 74.368-14.528z" fill="#597EF7" p-id="1724"></path></svg>
