<svg viewBox="0 0 1024 1024" xmlns="http://www.w3.org/2000/svg"><path d="M258.133333 197.973333l-16.64-16.64a42.368 42.368 0 0 0-59.733333 0v0.426667a41.984 41.984 0 0 0 0 59.733333l16.64 16.64c16.64 16.64 43.093333 16.64 59.733333 0l0.426667-0.426666a41.6 41.6 0 0 0-0.426667-59.733334zM128.853333 469.333333H85.333333c-23.466667 0-42.666667 18.773333-42.666666 42.24V512c0 23.466667 18.773333 42.24 42.24 42.24H128c23.893333 0.426667 42.666667-18.346667 42.666667-41.813333V512c0.426667-23.893333-18.346667-42.666667-41.813334-42.666667z m384-424.533333h-0.426666c-23.893333 0-42.666667 18.773333-42.666667 42.24V128c0 23.466667 18.773333 42.24 42.24 42.24h0.426667c23.893333 0.426667 42.666667-18.346667 42.666666-41.813333v-41.386667c0-23.466667-19.2-42.24-42.24-42.24z m329.813334 136.96c-16.64-16.64-43.52-16.64-60.16-0.426667l-16.64 16.64a41.984 41.984 0 0 0 0 59.733334l0.426666 0.426666c16.64 16.64 43.52 16.64 59.733334 0l16.64-16.64c17.066667-16.64 17.066667-43.093333 0-59.733333z m-77.226667 644.266667l16.64 16.64a42.496 42.496 0 1 0 60.16-60.16l-16.64-16.64a42.368 42.368 0 0 0-59.733333 0c-16.64 17.066667-16.64 43.52-0.426667 60.16zM853.333333 511.573333V512c0 23.466667 18.773333 42.24 42.24 42.24H938.666667c23.466667 0 42.24-18.773333 42.24-42.24v-0.426667A41.557333 41.557333 0 0 0 938.666667 469.333333h-42.666667c-23.893333 0-42.666667 18.773333-42.666667 42.24zM512.426667 256c-141.226667 0-256 114.773333-256 256s114.773333 256 256 256 256-114.773333 256-256-115.2-256-256-256z m-0.853334 723.2H512c23.466667 0 42.24-18.773333 42.24-42.24V896c0-23.466667-18.773333-42.24-42.24-42.24h-0.426667c-23.466667 0-42.24 18.773333-42.24 42.24v40.96c0.426667 23.466667 18.773333 42.24 42.24 42.24z m-329.813333-136.96c16.64 16.64 43.52 16.64 60.16 0l16.64-16.64a42.368 42.368 0 0 0 0-59.733333l-0.426667-0.426667a41.984 41.984 0 0 0-29.866666-12.373333c-11.093333 0-22.186667 4.693333-29.866667 12.373333l-16.64 16.64a42.496 42.496 0 0 0 0 60.16z" p-id="2088"></path></svg>
