<svg viewBox="0 0 1024 1024" xmlns="http://www.w3.org/2000/svg"><path d="M757.333333 174.506667l-107.946666 82.773333 38.826666 130.56-112.213333-77.226667-112.213333 77.226667 38.826666-130.56-107.946666-82.773333L530.773333 170.666667l45.226667-128 45.226667 128 136.106666 3.84m149.333334 294.826666l-69.973334 53.333334 25.173334 84.48-72.533334-49.92-72.533333 49.92 25.173333-84.48L672 469.333333l87.893333-2.133333L789.333333 384l29.44 83.2 87.893334 2.133333m-97.28 211.2c35.413333-3.413333 73.386667 46.933333 50.773333 78.933334-13.653333 19.2-28.16 37.12-46.08 54.186666C647.253333 981.333333 377.173333 981.333333 210.773333 813.653333c-166.826667-166.4-166.826667-436.906667 0-603.306666 17.066667-17.066667 34.986667-32.426667 54.186667-46.08 32-22.613333 82.346667 15.36 78.933333 50.773333-11.52 122.026667 29.44 248.746667 123.306667 342.186667a424.96 424.96 0 0 0 342.186667 123.306666m-69.973334 86.186667a515.413333 515.413333 0 0 1-332.8-148.053333c-92.586667-93.44-142.08-213.333333-148.906666-333.653334-119.893333 133.973333-115.2 339.626667 13.226666 468.48 128.853333 128.426667 334.506667 133.12 468.48 13.226667z" fill="" p-id="1814"></path></svg>
